<?xml version="1.0" encoding="UTF-8" standalone="no"?>
<!-- Created with Inkscape (http://www.inkscape.org/) -->

<svg
   xmlns:dc="http://purl.org/dc/elements/1.1/"
   xmlns:cc="http://creativecommons.org/ns#"
   xmlns:rdf="http://www.w3.org/1999/02/22-rdf-syntax-ns#"
   xmlns:svg="http://www.w3.org/2000/svg"
   xmlns="http://www.w3.org/2000/svg"
   xmlns:sodipodi="http://sodipodi.sourceforge.net/DTD/sodipodi-0.dtd"
   xmlns:inkscape="http://www.inkscape.org/namespaces/inkscape"
   width="327.7937"
   height="351.21347"
   id="svg2"
   version="1.1"
   inkscape:version="0.48.4 r9939"
   sodipodi:docname="drawing.svg">
  <defs
     id="defs4" />
  <sodipodi:namedview
     id="base"
     pagecolor="#ffffff"
     bordercolor="#666666"
     borderopacity="1.0"
     inkscape:pageopacity="0.0"
     inkscape:pageshadow="2"
     inkscape:zoom="0.90509668"
     inkscape:cx="198.53147"
     inkscape:cy="183.37104"
     inkscape:document-units="px"
     inkscape:current-layer="layer1"
     showgrid="false"
     inkscape:window-width="1215"
     inkscape:window-height="776"
     inkscape:window-x="65"
     inkscape:window-y="24"
     inkscape:window-maximized="1"
     width="3543.31px"
     fit-margin-top="0"
     fit-margin-left="0"
     fit-margin-right="0"
     fit-margin-bottom="0" />
  <metadata
     id="metadata7">
    <rdf:RDF>
      <cc:Work
         rdf:about="">
        <dc:format>image/svg+xml</dc:format>
        <dc:type
           rdf:resource="http://purl.org/dc/dcmitype/StillImage" />
        <dc:title />
      </cc:Work>
    </rdf:RDF>
  </metadata>
  <g
     inkscape:label="Layer 1"
     inkscape:groupmode="layer"
     id="layer1"
     transform="translate(-110.80005,-304.65093)">
    <g
       id="g2990">
      <path
         sodipodi:nodetypes="csccscscccccscscccscccccsscscssccssccscssscsccscscscsccsccscsccccsccccsscscscccssscssscsccc"
         inkscape:connector-curvature="0"
         id="path2998"
         d="m 388.15112,443.74527 c 0,0 -2.52539,1.01016 -3.283,4.04061 -0.75761,3.03046 -9.34391,16.16244 -9.34391,16.16244 0,0 -7.07107,8.5863 -3.53553,13.8896 0,0 14.89975,16.16244 15.65736,18.94036 0.75761,2.77792 42.17387,32.07235 42.17387,32.07235 0,0 8.08122,7.07106 7.57614,10.10152 -0.50507,3.03046 0.68891,17.19054 0.68891,17.19054 l -3.71937,43.67115 -249.0026,-0.50507 c 0,0 4.54569,-10.35407 7.07107,-11.61676 l 0.25254,-9.84899 c 0,0 -4.29315,-3.78807 -10.10153,0 -5.80837,3.78808 -16.66751,13.13199 -16.66751,13.13199 0,0 -3.03046,1.51523 -4.54569,-0.50508 -1.51523,-2.0203 -9.34391,-1.76777 -9.34391,-1.76777 0,0 -6.06092,-4.54568 -6.56599,-7.07106 0,0 -9.84899,-2.02031 -16.41498,0.75761 0,0 -8.08122,1.26269 -14.39468,-9.09137 -6.31345,-10.35407 -1.76776,-40.4061 -1.76776,-40.4061 0,0 11.36421,-51.51778 13.88959,-56.31601 0,0 13.63706,-33.08249 15.65737,-41.66879 0,0 6.38742,-19.90193 8.87581,-20.30503 0,0 5.51886,-7.47417 -0.037,-24.14168 0,0 -2.0203,-5.05077 -1.26269,-8.83884 0.75762,-3.78807 1.76777,-13.8896 -1.76776,-18.68782 -3.53554,-4.79822 -8.83884,-17.42513 -8.83884,-17.42513 0,0 -0.50507,-2.02031 -1.01015,-5.05076 -0.50508,-3.03046 -3.283,-13.63706 -3.283,-13.63706 0,0 -1.01015,-6.81853 -2.77792,-7.07107 -1.76776,-0.25254 0,-8.08122 4.54569,-3.78807 4.54569,4.29314 6.81853,9.09137 6.81853,9.09137 l 2.0203,9.09137 c 0,0 1.76777,4.29315 3.03046,-1.51523 1.26269,-5.80837 2.27285,-13.88959 5.55584,-17.67767 3.283,-3.78807 7.82868,-9.09137 7.82868,-9.09137 0,0 5.55584,-2.52538 6.56599,2.02031 0,0 -2.27284,8.83883 -5.3033,13.63706 -3.03045,4.79822 -3.53553,14.39467 -3.53553,14.39467 0,0 1.26269,2.52538 2.02031,-0.75762 0.75761,-3.28299 7.07106,-15.9099 7.82868,-16.16244 0.75761,-0.25253 4.79822,-6.81853 7.3236,-7.07106 2.52539,-0.25254 6.06092,-3.283 6.06092,-3.283 0,0 6.31345,-1.01015 5.55584,3.53553 -0.75762,4.54569 -8.83884,12.62691 -8.83884,12.62691 l -5.05076,13.8896 c 0,0 2.02031,1.51523 1.51523,6.06091 -0.50508,4.54569 0.75761,7.82869 0.75761,7.82869 0,0 1.26269,3.28299 4.04061,0.25253 2.77792,-3.03045 9.84899,-10.6066 9.84899,-10.6066 0,0 8.08122,-4.79822 12.12183,-3.28299 4.04061,1.51523 6.06092,2.77792 7.57615,4.54568 0,0 0.75761,-2.27284 3.28299,-1.26269 2.52538,1.01016 3.53554,4.54569 3.53554,4.54569 l 0,6.31345 c 0,0 3.28299,6.81853 3.28299,8.08122 0,1.26269 -3.03046,10.10153 -5.05076,13.38452 0,0 -5.3033,11.61676 -9.84899,16.92006 0,0 -9.34391,14.39467 -10.35406,14.39467 -1.01015,0 -9.34391,10.35407 -10.10153,15.90991 0,0 -1.01015,7.82868 -3.28299,8.33375 -2.27285,0.50508 -10.35407,23.99113 -11.11168,43.6891 l -5.05076,43.18402 5.3033,-4.29315 c 0,0 0.75761,-6.06091 9.59645,-6.31345 0,0 3.28299,1.01015 4.54568,-2.0203 1.26269,-3.03046 5.55584,-5.05077 9.59645,-4.79823 0,0 4.04061,-6.56599 10.10153,-6.06091 0,0 15.40482,-9.84899 19.44543,-8.5863 0,0 5.80838,-6.56599 13.13199,-7.57614 0,0 13.88959,-15.40483 17.9302,-16.92006 4.04061,-1.51523 5.55584,-1.26269 8.33376,-0.50508 2.77792,0.75762 11.8693,-1.76776 11.8693,-1.76776 0,0 5.80837,1.51523 8.33375,3.53553 2.52539,2.02031 9.09138,1.76777 9.09138,1.76777 0,0 0.25253,-6.81853 -2.02031,-9.09137 -2.27284,-2.27285 -0.50507,-36.61803 -0.50507,-36.61803 l -1.51523,-25.50636 c 0,0 3.28299,-14.39467 10.35406,-24.4962 0,0 10.35406,-8.33375 10.10153,-10.35406 -0.25254,-2.0203 -4.79823,-7.57614 -6.566,-8.5863 -1.76776,-1.01015 -0.75761,-6.81853 8.5863,-4.54568 9.34391,2.27284 16.41498,-2.27285 16.41498,-2.27285 0,0 11.11168,-3.53553 14.14214,-1.26269 3.03045,2.27285 7.3236,2.77792 10.85913,2.52539 3.53554,-0.25254 9.84899,-0.50508 11.8693,3.53553 2.0203,4.04061 2.27284,5.55584 2.27284,5.55584 0,0 7.57614,2.52538 11.86929,7.07107 4.29315,4.54568 18.18275,22.47589 18.18275,22.47589 l -1.01015,37.12311 c 0,0 5.3033,8.33375 -7.82869,23.73858"
         style="fill:#000000;fill-opacity:1;stroke:#000000;stroke-width:1px;stroke-linecap:butt;stroke-linejoin:miter;stroke-opacity:1" />
      <path
         inkscape:connector-curvature="0"
         id="path3000"
         d="m 206.07112,351.56885 c 0,0 -4.04061,-0.25253 -5.17703,2.39912 -1.13642,2.65165 -8.46003,9.97525 -8.46003,9.97525 0,0 -4.67196,4.9245 -1.01015,6.43972 3.6618,1.51523 7.44987,1.6415 8.20749,0.63135 0.75761,-1.01015 4.79822,-10.73287 6.18718,-10.22779 1.38896,0.50507 -1.38896,-7.57615 0.25254,-9.21765 z"
         style="fill:#ffffff;fill-opacity:1;stroke:#000000;stroke-width:1px;stroke-linecap:butt;stroke-linejoin:miter;stroke-opacity:1" />
      <flowRoot
         transform="translate(12.214646,2.1428571)"
         style="font-size:40px;font-style:normal;font-weight:normal;line-height:125%;letter-spacing:0px;word-spacing:0px;fill:#000000;fill-opacity:1;stroke:none;font-family:Sans"
         id="flowRoot3002"
         xml:space="preserve"><flowRegion
           id="flowRegion3004"><rect
             y="605.2193"
             x="163.57143"
             height="65"
             width="276.42856"
             id="rect3006" /></flowRegion><flowPara
           style="font-style:normal;font-variant:normal;font-weight:bold;font-stretch:normal;text-align:center;text-anchor:middle;font-family:OpenSymbol;-inkscape-font-specification:OpenSymbol Bold"
           id="flowPara3008">Fatboy</flowPara></flowRoot>    </g>
  </g>
</svg>
