<?xml version="1.0" encoding="UTF-8" standalone="no"?>
<!-- Created with Inkscape (http://www.inkscape.org/) -->
<svg id="svg2" xmlns:rdf="http://www.w3.org/1999/02/22-rdf-syntax-ns#" xmlns="http://www.w3.org/2000/svg" height="351.21" width="327.79" version="1.1" xmlns:cc="http://creativecommons.org/ns#" xmlns:dc="http://purl.org/dc/elements/1.1/">
 <metadata id="metadata7">
  <rdf:RDF>
   <cc:Work rdf:about="">
    <dc:format>image/svg+xml</dc:format>
    <dc:type rdf:resource="http://purl.org/dc/dcmitype/StillImage"/>
    <dc:title/>
   </cc:Work>
  </rdf:RDF>
 </metadata>
 <g id="layer1" transform="translate(-110.80005,-304.65093)">
  <g id="g2990">
   <path id="path2998" stroke-linejoin="miter" d="m388.15,443.75s-2.5254,1.0102-3.283,4.0406c-0.75761,3.0305-9.3439,16.162-9.3439,16.162s-7.0711,8.5863-3.5355,13.89c0,0,14.9,16.162,15.657,18.94,0.75761,2.7779,42.174,32.072,42.174,32.072s8.0812,7.0711,7.5761,10.102c-0.50507,3.0305,0.68891,17.191,0.68891,17.191l-3.7194,43.671-249-0.50507s4.5457-10.354,7.0711-11.617l0.25254-9.849s-4.2932-3.7881-10.102,0c-5.8084,3.7881-16.668,13.132-16.668,13.132s-3.0305,1.5152-4.5457-0.50508-9.3439-1.7678-9.3439-1.7678-6.0609-4.5457-6.566-7.0711c0,0-9.849-2.0203-16.415,0.75761,0,0-8.0812,1.2627-14.395-9.0914-6.3134-10.354-1.7678-40.406-1.7678-40.406s11.364-51.518,13.89-56.316c0,0,13.637-33.082,15.657-41.669,0,0,6.3874-19.902,8.8758-20.305,0,0,5.5189-7.4742-0.037-24.142,0,0-2.0203-5.0508-1.2627-8.8388,0.75762-3.7881,1.7678-13.89-1.7678-18.688-3.5355-4.7982-8.8388-17.425-8.8388-17.425s-0.50507-2.0203-1.0102-5.0508c-0.50508-3.0305-3.283-13.637-3.283-13.637s-1.0102-6.8185-2.7779-7.0711c-1.7678-0.25254,0-8.0812,4.5457-3.7881s6.8185,9.0914,6.8185,9.0914l2.0203,9.0914s1.7678,4.2932,3.0305-1.5152,2.2728-13.89,5.5558-17.678c3.283-3.7881,7.8287-9.0914,7.8287-9.0914s5.5558-2.5254,6.566,2.0203c0,0-2.2728,8.8388-5.3033,13.637-3.0304,4.7982-3.5355,14.395-3.5355,14.395s1.2627,2.5254,2.0203-0.75762c0.75761-3.283,7.0711-15.91,7.8287-16.162,0.75761-0.25253,4.7982-6.8185,7.3236-7.0711,2.5254-0.25254,6.0609-3.283,6.0609-3.283s6.3134-1.0102,5.5558,3.5355c-0.75762,4.5457-8.8388,12.627-8.8388,12.627l-5.0508,13.89s2.0203,1.5152,1.5152,6.0609c-0.50508,4.5457,0.75761,7.8287,0.75761,7.8287s1.2627,3.283,4.0406,0.25253c2.7779-3.0304,9.849-10.607,9.849-10.607s8.0812-4.7982,12.122-3.283c4.0406,1.5152,6.0609,2.7779,7.5762,4.5457,0,0,0.75761-2.2728,3.283-1.2627,2.5254,1.0102,3.5355,4.5457,3.5355,4.5457v6.3134s3.283,6.8185,3.283,8.0812-3.0305,10.102-5.0508,13.385c0,0-5.3033,11.617-9.849,16.92,0,0-9.3439,14.395-10.354,14.395-1.0102,0-9.3439,10.354-10.102,15.91,0,0-1.0102,7.8287-3.283,8.3338-2.2728,0.50508-10.354,23.991-11.112,43.689l-5.0508,43.184,5.3033-4.2932s0.75761-6.0609,9.5964-6.3134c0,0,3.283,1.0102,4.5457-2.0203s5.5558-5.0508,9.5964-4.7982c0,0,4.0406-6.566,10.102-6.0609,0,0,15.405-9.849,19.445-8.5863,0,0,5.8084-6.566,13.132-7.5761,0,0,13.89-15.405,17.93-16.92,4.0406-1.5152,5.5558-1.2627,8.3338-0.50508,2.7779,0.75762,11.869-1.7678,11.869-1.7678s5.8084,1.5152,8.3338,3.5355,9.0914,1.7678,9.0914,1.7678,0.25253-6.8185-2.0203-9.0914c-2.2728-2.2728-0.50507-36.618-0.50507-36.618l-1.5152-25.506s3.283-14.395,10.354-24.496c0,0,10.354-8.3338,10.102-10.354-0.25254-2.0203-4.7982-7.5761-6.566-8.5863s-0.75761-6.8185,8.5863-4.5457,16.415-2.2728,16.415-2.2728,11.112-3.5355,14.142-1.2627c3.0304,2.2728,7.3236,2.7779,10.859,2.5254,3.5355-0.25254,9.849-0.50508,11.869,3.5355,2.0203,4.0406,2.2728,5.5558,2.2728,5.5558s7.5761,2.5254,11.869,7.0711c4.2932,4.5457,18.183,22.476,18.183,22.476l-1.0102,37.123s5.3033,8.3338-7.8287,23.739" stroke="#000" stroke-linecap="butt" stroke-width="1px" fill="#000"/>
   <path id="path3000" stroke-linejoin="miter" d="m206.07,351.57s-4.0406-0.25253-5.177,2.3991-8.46,9.9752-8.46,9.9752-4.672,4.9245-1.0102,6.4397,7.4499,1.6415,8.2075,0.63135c0.75761-1.0102,4.7982-10.733,6.1872-10.228,1.389,0.50507-1.389-7.5762,0.25254-9.2176z" stroke="#000" stroke-linecap="butt" stroke-width="1px" fill="#FFF"/>
   <g id="flowRoot3002" style="letter-spacing:0px;word-spacing:0px;" font-weight="normal" transform="translate(12.214646,2.1428571)" font-size="40px" font-style="normal" font-family="Sans" line-height="125%" fill="#000">
    <path id="path3021" style="text-align:center;" d="m228.73,615.93,20.293,0,0,5.6836-12.773,0,0,5.4297,12.012,0,0,5.6836-12.012,0,0,12.363-7.5195,0,0-29.16"/>
    <path id="path3023" style="text-align:center;" d="m263.23,635.24c-1.4583,0.00001-2.5586,0.2474-3.3008,0.74218-0.72917,0.4948-1.0938,1.224-1.0938,2.1875-0.00001,0.88543,0.29296,1.582,0.87891,2.0898,0.59895,0.49479,1.4258,0.74219,2.4805,0.74219,1.3151,0,2.4219-0.46875,3.3203-1.4062,0.89842-0.95052,1.3476-2.1354,1.3476-3.5547v-0.80078h-3.6328m10.684-2.6367,0,12.48-7.0508,0,0-3.2422c-0.93751,1.3281-1.9922,2.2982-3.1641,2.9102-1.1719,0.59895-2.5977,0.89843-4.2773,0.89843-2.2656,0-4.1081-0.65755-5.5274-1.9726-1.4062-1.3281-2.1094-3.0469-2.1094-5.1562,0-2.5651,0.8789-4.4466,2.6367-5.6445,1.7708-1.1979,4.5443-1.7969,8.3203-1.7969h4.1211v-0.54687c-0.00001-1.1068-0.43621-1.914-1.3086-2.4219-0.87241-0.52082-2.2331-0.78123-4.082-0.78125-1.4974,0.00002-2.8906,0.14976-4.1797,0.44922-1.2891,0.2995-2.487,0.74871-3.5938,1.3477v-5.332c1.4974-0.36456,3.0013-0.63799,4.5117-0.82031,1.5104-0.19529,3.0208-0.29294,4.5312-0.29297,3.9453,0.00003,6.7904,0.78127,8.5352,2.3438,1.7578,1.5495,2.6367,4.0755,2.6367,7.5781"/>
    <path id="path3025" style="text-align:center;" d="m288.09,617,0,6.2109,7.207,0,0,5-7.207,0,0,9.2773c-0.00001,1.0156,0.20182,1.7057,0.60547,2.0703,0.40364,0.35157,1.2044,0.52735,2.4024,0.52735h3.5938v5h-5.9961c-2.7604,0-4.7201-0.57292-5.8789-1.7188-1.1458-1.1588-1.7188-3.1185-1.7188-5.8789v-9.2773h-3.4766v-5h3.4766v-6.2109h6.9922"/>
    <path id="path3027" style="text-align:center;" d="m311.23,640.58c1.4974,0,2.6367-0.54687,3.418-1.6406,0.79426-1.0937,1.1914-2.6823,1.1914-4.7656-0.00002-2.0833-0.39715-3.6719-1.1914-4.7656-0.78126-1.0937-1.9206-1.6406-3.418-1.6406-1.4974,0.00002-2.6498,0.5534-3.457,1.6602-0.79428,1.0938-1.1914,2.6758-1.1914,4.7461-0.00001,2.0703,0.39712,3.6589,1.1914,4.7656,0.80728,1.0938,1.9596,1.6406,3.457,1.6406m-4.6484-14.16c0.96353-1.276,2.0312-2.2135,3.2031-2.8125,1.1719-0.61196,2.5195-0.91794,4.043-0.91797,2.6953,0.00003,4.9088,1.0742,6.6406,3.2227,1.7317,2.1354,2.5976,4.8893,2.5976,8.2617-0.00002,3.3724-0.86591,6.1328-2.5976,8.2812-1.7318,2.1354-3.9453,3.2031-6.6406,3.2031-1.5234,0-2.8711-0.29948-4.043-0.89843-1.1719-0.61198-2.2396-1.556-3.2031-2.832v3.1641h-6.9922v-30.391h6.9922v11.719"/>
    <path id="path3029" style="text-align:center;" d="m338.68,627.69c-1.5495,0.00002-2.7344,0.55992-3.5547,1.6797-0.8073,1.1068-1.2109,2.7084-1.2109,4.8047-0.00001,2.0964,0.40363,3.7044,1.2109,4.8242,0.82031,1.1068,2.0052,1.6602,3.5547,1.6602,1.5234,0.00001,2.6888-0.55338,3.4961-1.6602,0.80728-1.1198,1.2109-2.7279,1.2109-4.8242-0.00002-2.0963-0.40366-3.6979-1.2109-4.8047-0.8073-1.1198-1.9727-1.6797-3.4961-1.6797m0-5c3.763,0.00003,6.6992,1.0156,8.8086,3.0469,2.1224,2.0313,3.1836,4.8438,3.1836,8.4375-0.00003,3.5938-1.0612,6.4062-3.1836,8.4375-2.1094,2.0312-5.0456,3.0469-8.8086,3.0469-3.776,0-6.7318-1.0156-8.8672-3.0469-2.1224-2.0312-3.1836-4.8437-3.1836-8.4375,0-3.5937,1.0612-6.4062,3.1836-8.4375,2.1354-2.0312,5.0911-3.0468,8.8672-3.0469"/>
    <path id="path3031" style="text-align:center;" d="m352.89,623.21,6.9922,0,5.8789,14.844,5-14.844,6.9922,0-9.1992,23.945c-0.92449,2.4349-2.0052,4.1341-3.2422,5.0977-1.224,0.97655-2.8451,1.4648-4.8633,1.4648h-4.043v-4.5898h2.1875c1.1849-0.00001,2.0443-0.18881,2.5781-0.56641,0.54687-0.37761,0.97004-1.0547,1.2695-2.0312l0.19531-0.60547-9.7461-22.715"/>
   </g>
  </g>
 </g>
</svg>
