<?xml version="1.0" encoding="UTF-8" standalone="no"?>
<!-- Created with Inkscape (http://www.inkscape.org/) -->

<svg
   xmlns:dc="http://purl.org/dc/elements/1.1/"
   xmlns:cc="http://creativecommons.org/ns#"
   xmlns:rdf="http://www.w3.org/1999/02/22-rdf-syntax-ns#"
   xmlns:svg="http://www.w3.org/2000/svg"
   xmlns="http://www.w3.org/2000/svg"
   xmlns:sodipodi="http://sodipodi.sourceforge.net/DTD/sodipodi-0.dtd"
   xmlns:inkscape="http://www.inkscape.org/namespaces/inkscape"
   width="327.7937"
   height="351.21347"
   id="svg2"
   version="1.1"
   inkscape:version="0.48.4 r9939"
   sodipodi:docname="logo-optimize.svg">
  <defs
     id="defs4" />
  <sodipodi:namedview
     id="base"
     pagecolor="#ffffff"
     bordercolor="#666666"
     borderopacity="1.0"
     inkscape:pageopacity="0.0"
     inkscape:pageshadow="2"
     inkscape:zoom="0.90509668"
     inkscape:cx="198.53147"
     inkscape:cy="183.37104"
     inkscape:document-units="px"
     inkscape:current-layer="layer1"
     showgrid="false"
     inkscape:window-width="1215"
     inkscape:window-height="776"
     inkscape:window-x="65"
     inkscape:window-y="24"
     inkscape:window-maximized="1"
     width="3543.31px"
     fit-margin-top="0"
     fit-margin-left="0"
     fit-margin-right="0"
     fit-margin-bottom="0" />
  <metadata
     id="metadata7">
    <rdf:RDF>
      <cc:Work
         rdf:about="">
        <dc:format>image/svg+xml</dc:format>
        <dc:type
           rdf:resource="http://purl.org/dc/dcmitype/StillImage" />
        <dc:title></dc:title>
      </cc:Work>
    </rdf:RDF>
  </metadata>
  <g
     inkscape:label="Layer 1"
     inkscape:groupmode="layer"
     id="layer1"
     transform="translate(-110.80005,-304.65093)">
    <g
       id="g2990">
      <path
         sodipodi:nodetypes="csccscscccccscscccscccccsscscssccssccscssscsccscscscsccsccscsccccsccccsscscscccssscssscsccc"
         inkscape:connector-curvature="0"
         id="path2998"
         d="m 388.15112,443.74527 c 0,0 -2.52539,1.01016 -3.283,4.04061 -0.75761,3.03046 -9.34391,16.16244 -9.34391,16.16244 0,0 -7.07107,8.5863 -3.53553,13.8896 0,0 14.89975,16.16244 15.65736,18.94036 0.75761,2.77792 42.17387,32.07235 42.17387,32.07235 0,0 8.08122,7.07106 7.57614,10.10152 -0.50507,3.03046 0.68891,17.19054 0.68891,17.19054 l -3.71937,43.67115 -249.0026,-0.50507 c 0,0 4.54569,-10.35407 7.07107,-11.61676 l 0.25254,-9.84899 c 0,0 -4.29315,-3.78807 -10.10153,0 -5.80837,3.78808 -16.66751,13.13199 -16.66751,13.13199 0,0 -3.03046,1.51523 -4.54569,-0.50508 -1.51523,-2.0203 -9.34391,-1.76777 -9.34391,-1.76777 0,0 -6.06092,-4.54568 -6.56599,-7.07106 0,0 -9.84899,-2.02031 -16.41498,0.75761 0,0 -8.08122,1.26269 -14.39468,-9.09137 -6.31345,-10.35407 -1.76776,-40.4061 -1.76776,-40.4061 0,0 11.36421,-51.51778 13.88959,-56.31601 0,0 13.63706,-33.08249 15.65737,-41.66879 0,0 6.38742,-19.90193 8.87581,-20.30503 0,0 5.51886,-7.47417 -0.037,-24.14168 0,0 -2.0203,-5.05077 -1.26269,-8.83884 0.75762,-3.78807 1.76777,-13.8896 -1.76776,-18.68782 -3.53554,-4.79822 -8.83884,-17.42513 -8.83884,-17.42513 0,0 -0.50507,-2.02031 -1.01015,-5.05076 -0.50508,-3.03046 -3.283,-13.63706 -3.283,-13.63706 0,0 -1.01015,-6.81853 -2.77792,-7.07107 -1.76776,-0.25254 0,-8.08122 4.54569,-3.78807 4.54569,4.29314 6.81853,9.09137 6.81853,9.09137 l 2.0203,9.09137 c 0,0 1.76777,4.29315 3.03046,-1.51523 1.26269,-5.80837 2.27285,-13.88959 5.55584,-17.67767 3.283,-3.78807 7.82868,-9.09137 7.82868,-9.09137 0,0 5.55584,-2.52538 6.56599,2.02031 0,0 -2.27284,8.83883 -5.3033,13.63706 -3.03045,4.79822 -3.53553,14.39467 -3.53553,14.39467 0,0 1.26269,2.52538 2.02031,-0.75762 0.75761,-3.28299 7.07106,-15.9099 7.82868,-16.16244 0.75761,-0.25253 4.79822,-6.81853 7.3236,-7.07106 2.52539,-0.25254 6.06092,-3.283 6.06092,-3.283 0,0 6.31345,-1.01015 5.55584,3.53553 -0.75762,4.54569 -8.83884,12.62691 -8.83884,12.62691 l -5.05076,13.8896 c 0,0 2.02031,1.51523 1.51523,6.06091 -0.50508,4.54569 0.75761,7.82869 0.75761,7.82869 0,0 1.26269,3.28299 4.04061,0.25253 2.77792,-3.03045 9.84899,-10.6066 9.84899,-10.6066 0,0 8.08122,-4.79822 12.12183,-3.28299 4.04061,1.51523 6.06092,2.77792 7.57615,4.54568 0,0 0.75761,-2.27284 3.28299,-1.26269 2.52538,1.01016 3.53554,4.54569 3.53554,4.54569 l 0,6.31345 c 0,0 3.28299,6.81853 3.28299,8.08122 0,1.26269 -3.03046,10.10153 -5.05076,13.38452 0,0 -5.3033,11.61676 -9.84899,16.92006 0,0 -9.34391,14.39467 -10.35406,14.39467 -1.01015,0 -9.34391,10.35407 -10.10153,15.90991 0,0 -1.01015,7.82868 -3.28299,8.33375 -2.27285,0.50508 -10.35407,23.99113 -11.11168,43.6891 l -5.05076,43.18402 5.3033,-4.29315 c 0,0 0.75761,-6.06091 9.59645,-6.31345 0,0 3.28299,1.01015 4.54568,-2.0203 1.26269,-3.03046 5.55584,-5.05077 9.59645,-4.79823 0,0 4.04061,-6.56599 10.10153,-6.06091 0,0 15.40482,-9.84899 19.44543,-8.5863 0,0 5.80838,-6.56599 13.13199,-7.57614 0,0 13.88959,-15.40483 17.9302,-16.92006 4.04061,-1.51523 5.55584,-1.26269 8.33376,-0.50508 2.77792,0.75762 11.8693,-1.76776 11.8693,-1.76776 0,0 5.80837,1.51523 8.33375,3.53553 2.52539,2.02031 9.09138,1.76777 9.09138,1.76777 0,0 0.25253,-6.81853 -2.02031,-9.09137 -2.27284,-2.27285 -0.50507,-36.61803 -0.50507,-36.61803 l -1.51523,-25.50636 c 0,0 3.28299,-14.39467 10.35406,-24.4962 0,0 10.35406,-8.33375 10.10153,-10.35406 -0.25254,-2.0203 -4.79823,-7.57614 -6.566,-8.5863 -1.76776,-1.01015 -0.75761,-6.81853 8.5863,-4.54568 9.34391,2.27284 16.41498,-2.27285 16.41498,-2.27285 0,0 11.11168,-3.53553 14.14214,-1.26269 3.03045,2.27285 7.3236,2.77792 10.85913,2.52539 3.53554,-0.25254 9.84899,-0.50508 11.8693,3.53553 2.0203,4.04061 2.27284,5.55584 2.27284,5.55584 0,0 7.57614,2.52538 11.86929,7.07107 4.29315,4.54568 18.18275,22.47589 18.18275,22.47589 l -1.01015,37.12311 c 0,0 5.3033,8.33375 -7.82869,23.73858"
         style="fill:#000000;fill-opacity:1;stroke:#000000;stroke-width:1px;stroke-linecap:butt;stroke-linejoin:miter;stroke-opacity:1" />
      <path
         inkscape:connector-curvature="0"
         id="path3000"
         d="m 206.07112,351.56885 c 0,0 -4.04061,-0.25253 -5.17703,2.39912 -1.13642,2.65165 -8.46003,9.97525 -8.46003,9.97525 0,0 -4.67196,4.9245 -1.01015,6.43972 3.6618,1.51523 7.44987,1.6415 8.20749,0.63135 0.75761,-1.01015 4.79822,-10.73287 6.18718,-10.22779 1.38896,0.50507 -1.38896,-7.57615 0.25254,-9.21765 z"
         style="fill:#ffffff;fill-opacity:1;stroke:#000000;stroke-width:1px;stroke-linecap:butt;stroke-linejoin:miter;stroke-opacity:1" />
      <g
         transform="translate(12.214646,2.1428571)"
         style="font-size:40px;font-style:normal;font-weight:normal;line-height:125%;letter-spacing:0px;word-spacing:0px;fill:#000000;fill-opacity:1;stroke:none;font-family:Sans"
         id="flowRoot3002">
        <path
           d="m 228.73437,615.92856 20.29297,0 0,5.68359 -12.77343,0 0,5.42969 12.01171,0 0,5.6836 -12.01171,0 0,12.36328 -7.51954,0 0,-29.16016"
           style="font-variant:normal;font-weight:bold;font-stretch:normal;text-align:center;text-anchor:middle;font-family:OpenSymbol;-inkscape-font-specification:OpenSymbol Bold"
           id="path3021" />
        <path
           d="m 263.22656,635.24497 c -1.45834,1e-5 -2.5586,0.2474 -3.30078,0.74218 -0.72917,0.4948 -1.09376,1.22397 -1.09375,2.1875 -10e-6,0.88543 0.29296,1.58204 0.87891,2.08985 0.59895,0.49479 1.42577,0.74219 2.48047,0.74219 1.31509,0 2.42186,-0.46875 3.32031,-1.40625 0.89842,-0.95052 1.34764,-2.13541 1.34765,-3.55469 l 0,-0.80078 -3.63281,0 m 10.6836,-2.63672 0,12.48047 -7.05079,0 0,-3.24219 c -0.93751,1.32813 -1.9922,2.29818 -3.16406,2.91016 -1.17188,0.59895 -2.59766,0.89843 -4.27734,0.89843 -2.26563,0 -4.10808,-0.65755 -5.52735,-1.97265 -1.40625,-1.32813 -2.10937,-3.04687 -2.10937,-5.15625 0,-2.5651 0.8789,-4.44661 2.63672,-5.64453 1.77083,-1.19791 4.54426,-1.79687 8.32031,-1.79688 l 4.12109,0 0,-0.54687 c -1e-5,-1.10676 -0.43621,-1.91405 -1.30859,-2.42188 -0.87241,-0.52082 -2.23308,-0.78123 -4.08203,-0.78125 -1.49741,2e-5 -2.89063,0.14976 -4.17969,0.44922 -1.28907,0.2995 -2.48698,0.74871 -3.59375,1.34766 l 0,-5.33204 c 1.49739,-0.36456 3.0013,-0.63799 4.51172,-0.82031 1.51041,-0.19529 3.02082,-0.29294 4.53125,-0.29297 3.9453,3e-5 6.79035,0.78127 8.53516,2.34375 1.75779,1.5495 2.63669,4.07554 2.63672,7.57813"
           style="font-variant:normal;font-weight:bold;font-stretch:normal;text-align:center;text-anchor:middle;font-family:OpenSymbol;-inkscape-font-specification:OpenSymbol Bold"
           id="path3023" />
        <path
           d="m 288.08984,617.00278 0,6.21094 7.20703,0 0,5 -7.20703,0 0,9.27734 c -10e-6,1.01563 0.20182,1.70574 0.60547,2.07031 0.40364,0.35157 1.20442,0.52735 2.40235,0.52735 l 3.59375,0 0,5 -5.9961,0 c -2.76042,0 -4.72006,-0.57292 -5.8789,-1.71875 -1.14584,-1.15885 -1.71876,-3.11849 -1.71875,-5.87891 l 0,-9.27734 -3.47657,0 0,-5 3.47657,0 0,-6.21094 6.99218,0"
           style="font-variant:normal;font-weight:bold;font-stretch:normal;text-align:center;text-anchor:middle;font-family:OpenSymbol;-inkscape-font-specification:OpenSymbol Bold"
           id="path3025" />
        <path
           d="m 311.23437,640.577 c 1.49738,0 2.63671,-0.54687 3.41797,-1.64063 0.79426,-1.09374 1.19139,-2.68228 1.19141,-4.76562 -2e-5,-2.08332 -0.39715,-3.67186 -1.19141,-4.76563 -0.78126,-1.09373 -1.92059,-1.6406 -3.41797,-1.64062 -1.4974,2e-5 -2.64975,0.5534 -3.45703,1.66015 -0.79428,1.09377 -1.19141,2.6758 -1.1914,4.7461 -10e-6,2.07032 0.39712,3.65886 1.1914,4.76562 0.80728,1.09376 1.95963,1.64063 3.45703,1.64063 m -4.64843,-14.16016 c 0.96353,-1.27602 2.03124,-2.21352 3.20312,-2.8125 1.17186,-0.61196 2.51952,-0.91794 4.04297,-0.91797 2.69529,3e-5 4.90883,1.07424 6.64063,3.22266 1.73174,2.13543 2.59763,4.88934 2.59765,8.26172 -2e-5,3.3724 -0.86591,6.13281 -2.59765,8.28125 -1.7318,2.13541 -3.94534,3.20312 -6.64063,3.20312 -1.52345,0 -2.87111,-0.29948 -4.04297,-0.89843 -1.17188,-0.61198 -2.23959,-1.55599 -3.20312,-2.83204 l 0,3.16407 -6.99219,0 0,-30.39063 6.99219,0 0,11.71875"
           style="font-variant:normal;font-weight:bold;font-stretch:normal;text-align:center;text-anchor:middle;font-family:OpenSymbol;-inkscape-font-specification:OpenSymbol Bold"
           id="path3027" />
        <path
           d="m 338.67578,627.68637 c -1.54949,2e-5 -2.73438,0.55992 -3.55469,1.67969 -0.8073,1.10679 -1.21094,2.70835 -1.21093,4.80469 -1e-5,2.09636 0.40363,3.70443 1.21093,4.82422 0.82031,1.10677 2.0052,1.66016 3.55469,1.66015 1.52342,10e-6 2.68879,-0.55338 3.49609,-1.66015 0.80728,-1.11979 1.21092,-2.72786 1.21094,-4.82422 -2e-5,-2.09634 -0.40366,-3.6979 -1.21094,-4.80469 -0.8073,-1.11977 -1.97267,-1.67967 -3.49609,-1.67969 m 0,-5 c 3.763,3e-5 6.6992,1.01565 8.80859,3.04688 2.12238,2.03127 3.18357,4.84376 3.1836,8.4375 -3e-5,3.59376 -1.06122,6.40625 -3.1836,8.4375 -2.10939,2.03125 -5.04559,3.04687 -8.80859,3.04687 -3.77605,0 -6.73178,-1.01562 -8.86719,-3.04687 -2.12239,-2.03125 -3.18359,-4.84374 -3.18359,-8.4375 0,-3.59374 1.0612,-6.40623 3.18359,-8.4375 2.13541,-2.03123 5.09114,-3.04685 8.86719,-3.04688"
           style="font-variant:normal;font-weight:bold;font-stretch:normal;text-align:center;text-anchor:middle;font-family:OpenSymbol;-inkscape-font-specification:OpenSymbol Bold"
           id="path3029" />
        <path
           d="m 352.89453,623.21372 6.99219,0 5.8789,14.84375 5,-14.84375 6.99219,0 -9.19922,23.94531 c -0.92449,2.43489 -2.00522,4.13411 -3.24218,5.09766 -1.22397,0.97655 -2.84507,1.46483 -4.86329,1.46484 l -4.04296,0 0,-4.58984 2.1875,0 c 1.18488,-1e-5 2.04426,-0.18881 2.57812,-0.56641 0.54687,-0.37761 0.97004,-1.05469 1.26953,-2.03125 l 0.19531,-0.60547 -9.74609,-22.71484"
           style="font-variant:normal;font-weight:bold;font-stretch:normal;text-align:center;text-anchor:middle;font-family:OpenSymbol;-inkscape-font-specification:OpenSymbol Bold"
           id="path3031" />
      </g>
    </g>
  </g>
</svg>
